<?xml version="1.0" encoding="utf-8"?>
<!-- Generator: Adobe Illustrator 23.0.1, SVG Export Plug-In . SVG Version: 6.00 Build 0)  -->
<svg version="1.1" id="Capa_1" xmlns="http://www.w3.org/2000/svg" xmlns:xlink="http://www.w3.org/1999/xlink" x="0px" y="0px"
	 width="310.8px" height="310.8px" viewBox="0 0 310.8 310.8" style="enable-background:new 0 0 310.8 310.8;" xml:space="preserve"
	>
<path d="M155.6,310.8c-20,0-36.3-16.2-36.3-36.3c0-20,16.2-36.3,36.3-36.3c20,0,36.3,16.2,36.3,36.3
	C191.9,294.6,175.6,310.8,155.6,310.8z M205.9,58.8L188,179.1c-2.6,17.7-19.1,29.9-36.8,27.3c-14.3-2.1-25-13.3-27.2-26.9l-19.4-120
	C100.1,31.5,119,5.2,147,0.7s54.3,14.5,58.8,42.4C206.6,48.3,206.6,53.8,205.9,58.8z"/>
</svg>
